<?xml version="1.0" standalone="no"?>
<!DOCTYPE svg PUBLIC "-//W3C//DTD SVG 20010904//EN"
 "http://www.w3.org/TR/2001/REC-SVG-20010904/DTD/svg10.dtd">
<svg version="1.0" xmlns="http://www.w3.org/2000/svg"
 width="224.000000pt" height="224.000000pt" viewBox="0 0 224.000000 224.000000"
 preserveAspectRatio="xMidYMid meet">
<metadata>
Created by potrace 1.11, written by Peter Selinger 2001-2013
</metadata>
<g transform="translate(0.000000,224.000000) scale(0.100000,-0.100000)"
fill="#000000" stroke="none">
<path d="M682 1735 l-424 -425 50 -50 50 -50 -49 -50 -50 -49 41 -43 c22 -24
40 -46 40 -50 0 -4 -18 -26 -41 -48 l-41 -41 426 -425 427 -426 213 213 c117
118 309 309 425 425 l211 212 -44 45 -44 45 45 47 44 47 -49 49 -49 50 49 50
49 50 -424 425 c-234 233 -426 424 -428 424 -2 -1 -195 -192 -427 -425z m837
-39 l384 -385 -35 -36 -35 -36 -361 362 -362 361 -362 -362 -362 -362 -34 37
-33 36 393 394 c303 304 396 391 408 384 8 -4 188 -181 399 -393z m-50 -149
l333 -334 -29 -33 -28 -32 -318 317 -317 317 -317 -316 -316 -317 -30 31 -30
30 344 344 c265 266 347 342 359 335 8 -4 165 -159 349 -342z m-55 -127 l300
-300 -303 -302 -302 -302 -301 302 -301 302 299 300 c164 165 301 300 304 300
3 0 140 -135 304 -300z m-982 -285 c4 -5 8 -13 8 -17 0 -6 -58 -68 -64 -68 -1
0 -15 13 -30 29 l-27 29 32 36 c31 36 32 36 53 19 11 -10 24 -22 28 -28z
m1442 -56 c-29 -30 -32 -30 -76 14 -24 23 -23 29 9 61 l26 27 35 -37 34 -36
-28 -29z m-412 -411 l-352 -352 -352 352 -352 352 29 30 c16 17 34 30 41 30 6
0 152 -140 323 -311 l311 -311 317 317 316 317 36 -36 35 -36 -352 -352z
m-718 -44 l366 -366 367 366 367 367 30 -30 30 -30 -397 -398 -397 -397 -397
397 -396 397 28 30 c16 17 30 30 31 30 1 0 166 -165 368 -366z"/>
</g>
</svg>
